<svg width="250" height="250" viewBox="0 0 200 200" fill="none" xmlns="http://www.w3.org/2000/svg">
  <defs>
    <linearGradient id="pawGrad" x1="0%" y1="0%" x2="0%" y2="100%">
      <stop offset="0%" stop-color="#FFEEDD"/> <stop offset="100%" stop-color="#FFA0A0"/> </linearGradient>
    
    <filter id="softShadow" x="-20%" y="-20%" width="140%" height="140%">
      <feDropShadow dx="0" dy="5" stdDeviation="4" flood-color="#000000" flood-opacity="0.25"/>
    </filter>
  </defs>

  <path d="M 100 30
           C 115 30, 120 50, 120 65
           C 135 50, 145 45, 150 55
           C 155 65, 140 85, 130 95
           C 135 115, 135 140, 130 155
           C 130 175, 110 175, 110 160
           C 105 145, 95 145, 90 160
           C 90 175, 70 175, 70 155
           C 65 140, 65 120, 70 100
           C 80 115, 52 125, 48 120
           C 44 115, 55 90, 70 80
           C 75 45, 85 30, 100 30 Z"
        fill="url(#pawGrad)" filter="url(#softShadow)"/>
</svg>